<?xml version="1.0" encoding="UTF-8" standalone="no"?>
<svg
   xmlns:dc="http://purl.org/dc/elements/1.1/"
   xmlns:cc="http://creativecommons.org/ns#"
   xmlns:rdf="http://www.w3.org/1999/02/22-rdf-syntax-ns#"
   xmlns:svg="http://www.w3.org/2000/svg"
   xmlns="http://www.w3.org/2000/svg"
   xmlns:sodipodi="http://sodipodi.sourceforge.net/DTD/sodipodi-0.dtd"
   xmlns:inkscape="http://www.inkscape.org/namespaces/inkscape"
   height="100px"
   width="100px"
   fill="#000000"
   version="1.1"
   x="0px"
   y="0px"
   viewBox="0 0 100 100"
   enable-background="new 0 0 100 100"
   xml:space="preserve"
   id="svg4"
   sodipodi:docname="rings.svg"
   inkscape:version="0.92.4 (5da689c313, 2019-01-14)"><metadata
     id="metadata10"><rdf:RDF><cc:Work
         rdf:about=""><dc:format>image/svg+xml</dc:format><dc:type
           rdf:resource="http://purl.org/dc/dcmitype/StillImage" /><dc:title></dc:title></cc:Work></rdf:RDF></metadata><defs
     id="defs8" /><sodipodi:namedview
     pagecolor="#ffffff"
     bordercolor="#666666"
     borderopacity="1"
     objecttolerance="10"
     gridtolerance="10"
     guidetolerance="10"
     inkscape:pageopacity="0"
     inkscape:pageshadow="2"
     inkscape:window-width="1866"
     inkscape:window-height="1016"
     id="namedview6"
     showgrid="false"
     inkscape:zoom="2.36"
     inkscape:cx="50"
     inkscape:cy="50"
     inkscape:window-x="54"
     inkscape:window-y="27"
     inkscape:window-maximized="1"
     inkscape:current-layer="svg4" /><path
     d="M32.143,17.857C14.357,17.857,0,32.214,0,50s14.357,32.143,32.143,32.143S64.286,67.786,64.286,50  c0-5.857-1.571-11.286-4.286-16c-3.429,1.643-6.286,4.429-8,7.857c1,2.5,1.571,5.286,1.571,8.143  c0,11.857-9.571,21.429-21.429,21.429S10.714,61.857,10.714,50s9.571-21.429,21.429-21.429c2.214,0,4.429,0.357,6.429,1  c2.214-3.214,4.929-6,8.071-8.286C42.286,19.071,37.357,17.857,32.143,17.857z M67.857,17.857  c-17.786,0-32.143,14.357-32.143,32.143c0,5.857,1.571,11.286,4.286,16c3.429-1.643,6.286-4.429,8-7.857  c-1-2.5-1.571-5.286-1.571-8.143c0-11.857,9.571-21.429,21.429-21.429S89.286,38.143,89.286,50s-9.571,21.429-21.429,21.429  c-2.214,0-4.429-0.357-6.429-1c-2.214,3.214-4.929,6-8.071,8.286c4.357,2.214,9.286,3.429,14.5,3.429  C85.643,82.143,100,67.786,100,50S85.643,17.857,67.857,17.857z"
     id="path2" /></svg>