<?xml version="1.0" encoding="UTF-8" standalone="no"?>
<svg
   xmlns:dc="http://purl.org/dc/elements/1.1/"
   xmlns:cc="http://creativecommons.org/ns#"
   xmlns:rdf="http://www.w3.org/1999/02/22-rdf-syntax-ns#"
   xmlns:svg="http://www.w3.org/2000/svg"
   xmlns="http://www.w3.org/2000/svg"
   xmlns:sodipodi="http://sodipodi.sourceforge.net/DTD/sodipodi-0.dtd"
   xmlns:inkscape="http://www.inkscape.org/namespaces/inkscape"
   height="100px"
   width="100px"
   version="1.1"
   x="0px"
   y="0px"
   viewBox="0 0 100 100"
   enable-background="new 0 0 100 100"
   xml:space="preserve"
   id="svg4"
   sodipodi:docname="rings-1.svg"
   fill="#000000"
   inkscape:version="0.92.4 (5da689c313, 2019-01-14)"><metadata
     id="metadata10"><rdf:RDF><cc:Work
         rdf:about=""><dc:format>image/svg+xml</dc:format><dc:type
           rdf:resource="http://purl.org/dc/dcmitype/StillImage" /><dc:title></dc:title></cc:Work></rdf:RDF></metadata><defs
     id="defs8" /><sodipodi:namedview
     pagecolor="#ffffff"
     bordercolor="#666666"
     borderopacity="1"
     objecttolerance="10"
     gridtolerance="10"
     guidetolerance="10"
     inkscape:pageopacity="0"
     inkscape:pageshadow="2"
     inkscape:window-width="1866"
     inkscape:window-height="1016"
     id="namedview6"
     showgrid="false"
     inkscape:zoom="2.36"
     inkscape:cx="50"
     inkscape:cy="50"
     inkscape:window-x="54"
     inkscape:window-y="27"
     inkscape:window-maximized="1"
     inkscape:current-layer="svg4" /><path
     d="M 32.143,17.857 C 14.357,17.857 0,32.214 0,50 0,67.786 14.357,82.143 32.143,82.143 49.929,82.143 64.286,67.786 64.286,50 64.286,44.143 62.715,38.714 60,34 c -3.429,1.643 -3.319898,1.462898 -5.033898,4.890898 1,2.5 4.537101,7.828373 4.537101,10.685373 0,11.857 -13.384559,29.903576 -25.242559,29.903576 -11.858,0 -32.5979942,-15.307309 -30.7500338,-28.632389 C 5.7497034,34.702037 18.590085,19.672695 31.719271,22.638797 c 2.159575,0.487884 8.24256,0.780728 10.24256,1.423728 2.214,-3.214 1.539169,-0.491525 4.681169,-2.777525 -4.357,-2.214 -9.286,-3.428 -14.5,-3.428 z m 35.714,0 c -17.786,0 -32.143,14.357 -32.143,32.143 0,5.857 1.571,11.286 4.286,16 3.429,-1.643 3.319898,-1.462898 5.033898,-4.890898 -4.813559,0.04237 -6.232016,-10.370746 -6.232016,-13.227746 0,-11.857 15.926931,-26.937475 27.784931,-26.937475 11.858,0 30.750035,18.046577 30.750035,29.903577 0,11.857 -18.469305,28.208661 -30.327305,28.208661 -2.214,0 -5.700187,-3.746831 -7.700187,-4.389831 -2.214,3.214 -2.810356,1.762712 -5.952356,4.048712 4.357,2.214 9.286,3.429 14.5,3.429 C 85.643,82.143 100,67.786 100,50 100,32.214 85.643,17.857 67.857,17.857 Z"
     id="path2"
     inkscape:connector-curvature="0"
     sodipodi:nodetypes="ssssccssssccsssccsssscccss" /></svg>